<?xml version="1.0" encoding="UTF-8"?>
<svg xmlns="http://www.w3.org/2000/svg" viewBox="0 0 649.35 202.98">
  <defs>
    <style>.cls-1{fill:#fff;}.cls-2{fill:#005eb8;}</style>
  </defs>
  <g id="Layer_2" data-name="Layer 2">
    <g id="Layer_1-2" data-name="Layer 1">
      <rect class="cls-1" x="440.62" y="2.9" width="203.28" height="78.69"></rect>
      <path class="cls-2" d="M641.44,10.07,637,23.7a34.82,34.82,0,0,0-15.17-3.13c-7.29,0-13.21,1.07-13.21,6.57,0,9.7,26.71,6.08,26.71,26.87,0,18.92-17.64,23.83-33.61,23.83a77.36,77.36,0,0,1-21.28-3.54l4.33-13.93c3.64,2.36,10.94,3.93,17,3.93,5.73,0,14.68-1.08,14.68-8.14,0-11-26.71-6.87-26.71-26.17,0-17.66,15.58-23,30.66-23,8.48,0,16.46.89,21.09,3M588.51,8.21,574.22,76.65H555.8l6.11-29.31H540.12L534,76.65H515.58l14.3-68.44H548.3l-5.41,26.18h21.78l5.42-26.18Zm-65.43,0L508.5,76.65H485.62L471.24,29.29h-.19l-9.57,47.36H444.13L458.82,8.21h23l14.1,47.46h.19l9.66-47.46ZM649.35,0H438.17V85H649.35Z"></path>
      <path d="M339.58,121.18V152.5h-8V110.62h10.32l16,31.32h.12V110.62h8V152.5H355.72l-16-31.32Z"></path>
      <path d="M388.72,153.22a17,17,0,0,1-8.52-2.07,14.32,14.32,0,0,1-5.64-5.7,16.82,16.82,0,0,1-2-8.19,17.35,17.35,0,0,1,2.07-8.58,14.56,14.56,0,0,1,5.73-5.76,16.84,16.84,0,0,1,8.34-2,17,17,0,0,1,8.37,2,14.56,14.56,0,0,1,5.76,5.73,17.31,17.31,0,0,1,2.07,8.61,16.82,16.82,0,0,1-2,8.19,14.26,14.26,0,0,1-5.67,5.7A17.18,17.18,0,0,1,388.72,153.22Zm7.8-16.92a10.44,10.44,0,0,0-2-6.54,6.86,6.86,0,0,0-5.76-2.64,6.78,6.78,0,0,0-5.67,2.67A10.3,10.3,0,0,0,381,136.3q0,5,1.95,7.86a6.58,6.58,0,0,0,5.79,2.82,6.68,6.68,0,0,0,5.82-2.79Q396.52,141.4,396.52,136.3Z"></path>
      <path d="M418.54,121.6v7h.12a8.78,8.78,0,0,1,1.41-3.51,9.62,9.62,0,0,1,3.09-3,7.41,7.41,0,0,1,4-1.2,10.25,10.25,0,0,1,2.41.24v8.1a7.5,7.5,0,0,0-3.6-.66,5.37,5.37,0,0,0-4.86,2.7q-1.68,2.7-1.68,8.52V152.5h-8V121.6Z"></path>
      <path d="M447,153.22c-3.21,0-5.64-.91-7.33-2.73a10.36,10.36,0,0,1-2.51-7.29V127.48h-5.95V121.6h5.95v-6.18l8-2.58v8.76h7.14v5.88h-7.14v14.34a6.9,6.9,0,0,0,.89,3.84,3.32,3.32,0,0,0,2.95,1.32,6.65,6.65,0,0,0,3.59-.84l.25,6.36A21.55,21.55,0,0,1,447,153.22Z"></path>
      <path d="M473,127.12a5.83,5.83,0,0,0-5.27,2.85,14.07,14.07,0,0,0-1.81,7.59V152.5h-8v-45h8v18.3h.12a10.55,10.55,0,0,1,4.05-3.6,12.15,12.15,0,0,1,5.67-1.32q5.16,0,7.83,3.27t2.67,8.79V152.5h-8V135c0-2.8-.43-4.82-1.27-6.06A4.44,4.44,0,0,0,473,127.12Z"></path>
      <path d="M537.09,119l-7.44,33.48H518.79l-11.1-41.88h8.82l7.8,33.48h.12l7.14-33.48H543l7.38,33.48h.12l7.86-33.48h8.16L555.57,152.5h-10.8L537.21,119Z"></path>
      <path d="M584.38,153.22q-7.7,0-12-4.2t-4.26-11.82a20.49,20.49,0,0,1,1.59-8.19,13.08,13.08,0,0,1,12.75-8.13q7.68,0,11.2,4.62t3.5,14H575.85a8.17,8.17,0,0,0,2.65,5.73,9,9,0,0,0,6.23,2.07,16.21,16.21,0,0,0,5.16-.84,28,28,0,0,0,5-2.28v6.54A21.42,21.42,0,0,1,584.38,153.22Zm-1.45-26.46a6.62,6.62,0,0,0-4.89,1.89,8.33,8.33,0,0,0-2.19,5.37h13.68a8.94,8.94,0,0,0-1.89-5.34A5.87,5.87,0,0,0,582.93,126.76Z"></path>
      <path d="M610.24,147.34a7.37,7.37,0,0,0,3.65-.9,3.05,3.05,0,0,0,1.62-2.88,2.93,2.93,0,0,0-1.34-2.55,14.66,14.66,0,0,0-4.42-1.71,13.54,13.54,0,0,1-6.26-3.12,7.75,7.75,0,0,1-2-5.7,8.35,8.35,0,0,1,3.38-7,14.26,14.26,0,0,1,8.79-2.55,38.69,38.69,0,0,1,8.71,1.14l-.54,6.06a27.61,27.61,0,0,0-3.7-1,18.59,18.59,0,0,0-3.44-.3,6.24,6.24,0,0,0-3.49.87,2.88,2.88,0,0,0-1.32,2.55,2.33,2.33,0,0,0,1.24,2,15.92,15.92,0,0,0,4.11,1.56,14.06,14.06,0,0,1,6.54,3.39,8.31,8.31,0,0,1,2.1,6,8.64,8.64,0,0,1-3.63,7.47,15.74,15.74,0,0,1-9.4,2.61,35.65,35.65,0,0,1-9.06-1.32l.49-6.6A17.63,17.63,0,0,0,610.24,147.34Z"></path>
      <path d="M642.63,153.22q-4.8,0-7.32-2.73a10.32,10.32,0,0,1-2.52-7.29V127.48h-5.94V121.6h5.94v-6.18l8-2.58v8.76H648v5.88h-7.14v14.34a6.81,6.81,0,0,0,.9,3.84,3.3,3.3,0,0,0,2.94,1.32,6.66,6.66,0,0,0,3.6-.84l.24,6.36A21.5,21.5,0,0,1,642.63,153.22Z"></path>
      <path class="cls-2" d="M13.08,186.5H24.36v15a35.62,35.62,0,0,1-9,1.44q-7.2,0-11.26-3.64T0,189a16.7,16.7,0,0,1,1.8-8,12,12,0,0,1,5.28-5.14,17.93,17.93,0,0,1,8.28-1.78,28.14,28.14,0,0,1,8.16,1.16L23.16,180a16.1,16.1,0,0,0-3.5-1.1,19.13,19.13,0,0,0-3.7-.38,10.71,10.71,0,0,0-5.36,1.28,8.87,8.87,0,0,0-3.52,3.56,10.84,10.84,0,0,0-1.24,5.28A11.26,11.26,0,0,0,7,193.8a8.48,8.48,0,0,0,3.32,3.52,9.82,9.82,0,0,0,5,1.26,15.42,15.42,0,0,0,3.64-.4V190.9H13.08Z"></path>
      <path class="cls-2" d="M39.24,203c-3.41,0-6.07-.93-8-2.8s-2.84-4.5-2.84-7.88a13.6,13.6,0,0,1,1.06-5.46,8.72,8.72,0,0,1,8.5-5.42c3.41,0,5.9,1,7.46,3.08s2.34,5.17,2.34,9.36H33.56a5.47,5.47,0,0,0,1.76,3.82,6.06,6.06,0,0,0,4.16,1.38,10.92,10.92,0,0,0,3.44-.56A18.46,18.46,0,0,0,46.28,197v4.36A14.34,14.34,0,0,1,39.24,203Zm-1-17.64A4.42,4.42,0,0,0,35,186.6a5.53,5.53,0,0,0-1.46,3.58h9.12a6,6,0,0,0-1.26-3.56A3.89,3.89,0,0,0,38.28,185.34Z"></path>
      <path class="cls-2" d="M62.08,185.58a3.86,3.86,0,0,0-3.54,2,9.44,9.44,0,0,0-1.18,5v10H52V181.9h5.08v2.8h.08a7.76,7.76,0,0,1,6.76-3.28,6.38,6.38,0,0,1,5.22,2.16,9,9,0,0,1,1.78,5.92v13H65.56V190.94a7.74,7.74,0,0,0-.82-4.08A2.91,2.91,0,0,0,62.08,185.58Z"></path>
      <path class="cls-2" d="M85.88,203a11.35,11.35,0,0,1-5.68-1.38,9.54,9.54,0,0,1-3.76-3.8,11.25,11.25,0,0,1-1.32-5.46,11.56,11.56,0,0,1,1.38-5.72,9.6,9.6,0,0,1,3.82-3.84,11.17,11.17,0,0,1,5.56-1.36,11.3,11.3,0,0,1,5.58,1.36,9.67,9.67,0,0,1,3.84,3.82,11.53,11.53,0,0,1,1.38,5.74,11.25,11.25,0,0,1-1.32,5.46,9.53,9.53,0,0,1-3.78,3.8A11.45,11.45,0,0,1,85.88,203Zm5.2-11.28a6.94,6.94,0,0,0-1.36-4.36,4.59,4.59,0,0,0-3.84-1.76,4.51,4.51,0,0,0-3.78,1.78,6.87,6.87,0,0,0-1.38,4.34,9.1,9.1,0,0,0,1.3,5.24,4.38,4.38,0,0,0,3.86,1.88A4.46,4.46,0,0,0,89.76,197,9,9,0,0,0,91.08,191.7Z"></path>
      <path class="cls-2" d="M122.6,185.58a3.23,3.23,0,0,0-3,1.76,10.4,10.4,0,0,0-1,5.08V202.5h-5.36V189.66a5.07,5.07,0,0,0-.76-3.14,2.8,2.8,0,0,0-2.32-.94,3.22,3.22,0,0,0-3,1.78,10.47,10.47,0,0,0-1,5V202.5H100.8V181.9h5v2.88h.08a7.58,7.58,0,0,1,2.66-2.48,7,7,0,0,1,3.5-.88q4.39,0,6,3.64a6.18,6.18,0,0,1,2.58-2.66,7.84,7.84,0,0,1,3.9-1,5.91,5.91,0,0,1,4.88,2c1.06,1.32,1.6,3.32,1.6,6V202.5h-5.36V189.66a4.93,4.93,0,0,0-.78-3.14A2.81,2.81,0,0,0,122.6,185.58Z"></path>
      <path class="cls-2" d="M141.92,173v5.12h-5.36V173Zm0,8.88v20.6h-5.36V181.9Z"></path>
      <path class="cls-2" d="M156.44,203a9.76,9.76,0,0,1-7.5-2.9q-2.7-2.91-2.7-8a12.22,12.22,0,0,1,1.2-5.5,9,9,0,0,1,3.46-3.8,10,10,0,0,1,5.34-1.38,17.82,17.82,0,0,1,5.16.68l-.48,4.24a8.45,8.45,0,0,0-3.6-.76,4.91,4.91,0,0,0-4,1.8,7.12,7.12,0,0,0-1.5,4.72,7.57,7.57,0,0,0,1.46,4.9,5,5,0,0,0,4.1,1.82,9,9,0,0,0,2-.26,14.86,14.86,0,0,0,2.14-.7l.24,4.44A18.83,18.83,0,0,1,156.44,203Z"></path>
      <path class="cls-2" d="M202.76,179.46l-7.52,23h-5.36l-7.52-23-.08.08v23h-5.36V174.58h9l6.64,21.16h.08l6.64-21.16h9V202.5h-5.36v-23Z"></path>
      <path class="cls-2" d="M223.68,203q-5.13,0-8-2.8c-1.9-1.87-2.84-4.5-2.84-7.88a13.6,13.6,0,0,1,1.06-5.46,8.92,8.92,0,0,1,3.2-3.94,9,9,0,0,1,5.3-1.48c3.41,0,5.9,1,7.46,3.08s2.34,5.17,2.34,9.36H218a5.47,5.47,0,0,0,1.76,3.82,6,6,0,0,0,4.16,1.38,10.92,10.92,0,0,0,3.44-.56,18.46,18.46,0,0,0,3.36-1.52v4.36A14.36,14.36,0,0,1,223.68,203Zm-1-17.64a4.4,4.4,0,0,0-3.26,1.26,5.53,5.53,0,0,0-1.46,3.58h9.12a6,6,0,0,0-1.26-3.56A3.9,3.9,0,0,0,222.72,185.34Z"></path>
      <path class="cls-2" d="M250.08,200.18a7.63,7.63,0,0,1-6.32,2.8,7.39,7.39,0,0,1-6.5-3.06,13.23,13.23,0,0,1-2.14-7.78,12.62,12.62,0,0,1,2.2-7.8,7.54,7.54,0,0,1,6.44-2.92,8,8,0,0,1,3.48.7,7.78,7.78,0,0,1,2.68,2.18H250V172.5h5.36v30h-5.2v-2.32Zm-.12-8a9.56,9.56,0,0,0-.52-3.1,5.89,5.89,0,0,0-1.6-2.48,3.82,3.82,0,0,0-2.68-1,3.6,3.6,0,0,0-3.32,1.92,9,9,0,0,0-1.12,4.64,9.52,9.52,0,0,0,1.1,4.66,3.64,3.64,0,0,0,3.42,2,3.85,3.85,0,0,0,3.56-2A9.23,9.23,0,0,0,250,192.14Z"></path>
      <path class="cls-2" d="M266.36,173v5.12H261V173Zm0,8.88v20.6H261V181.9Z"></path>
      <path class="cls-2" d="M280.88,203a9.76,9.76,0,0,1-7.5-2.9q-2.7-2.91-2.7-8a12.22,12.22,0,0,1,1.2-5.5,9,9,0,0,1,3.46-3.8,10,10,0,0,1,5.34-1.38,17.82,17.82,0,0,1,5.16.68l-.48,4.24a8.45,8.45,0,0,0-3.6-.76,4.91,4.91,0,0,0-4,1.8,7.12,7.12,0,0,0-1.5,4.72,7.57,7.57,0,0,0,1.46,4.9,5,5,0,0,0,4.1,1.82,9,9,0,0,0,2-.26,14.86,14.86,0,0,0,2.14-.7l.24,4.44A18.83,18.83,0,0,1,280.88,203Z"></path>
      <path class="cls-2" d="M295.24,173v5.12h-5.36V173Zm0,8.88v20.6h-5.36V181.9Z"></path>
      <path class="cls-2" d="M311,185.58a3.85,3.85,0,0,0-3.54,2,9.44,9.44,0,0,0-1.18,5v10h-5.36V181.9H306v2.8H306a7.74,7.74,0,0,1,6.76-3.28,6.38,6.38,0,0,1,5.22,2.16,9.07,9.07,0,0,1,1.77,5.92v13h-5.35V190.94a7.84,7.84,0,0,0-.82-4.08A2.92,2.92,0,0,0,311,185.58Z"></path>
      <path class="cls-2" d="M334.8,203q-5.13,0-8-2.8c-1.9-1.87-2.84-4.5-2.84-7.88a13.6,13.6,0,0,1,1.06-5.46,8.92,8.92,0,0,1,3.2-3.94,9,9,0,0,1,5.3-1.48c3.41,0,5.9,1,7.46,3.08s2.34,5.17,2.34,9.36H329.12a5.47,5.47,0,0,0,1.76,3.82,6,6,0,0,0,4.16,1.38,10.92,10.92,0,0,0,3.44-.56,18.46,18.46,0,0,0,3.36-1.52v4.36A14.36,14.36,0,0,1,334.8,203Zm-1-17.64a4.4,4.4,0,0,0-3.26,1.26,5.53,5.53,0,0,0-1.46,3.58h9.12a6,6,0,0,0-1.26-3.56A3.9,3.9,0,0,0,333.84,185.34Z"></path>
      <path class="cls-2" d="M365.52,198.58a6.66,6.66,0,0,0,3.38-.92,2.94,2.94,0,0,0,1.58-2.68,2.77,2.77,0,0,0-1.12-2.3,15.25,15.25,0,0,0-3.52-1.82,31,31,0,0,1-4-1.82,7.48,7.48,0,0,1-2.56-2.42,7,7,0,0,1-1-4,7.57,7.57,0,0,1,2.76-6.38,11.12,11.12,0,0,1,7-2.14,20.84,20.84,0,0,1,6.64,1l-.52,4.6a14.53,14.53,0,0,0-5.68-1.2,5.11,5.11,0,0,0-3.1.94,3.37,3.37,0,0,0-1.3,2.94,2.35,2.35,0,0,0,.64,1.68,4.73,4.73,0,0,0,1.48,1.06c.56.25,1.42.62,2.6,1.1a24,24,0,0,1,3.92,1.8,7.61,7.61,0,0,1,2.58,2.5,7.27,7.27,0,0,1,1,4,7.53,7.53,0,0,1-2.76,6.24Q370.8,203,365.8,203a19.82,19.82,0,0,1-3.34-.24q-1.38-.24-3.78-.84l.52-5A13.34,13.34,0,0,0,365.52,198.58Z"></path>
      <path class="cls-2" d="M390.4,203q-5.13,0-8-2.8c-1.9-1.87-2.84-4.5-2.84-7.88a13.6,13.6,0,0,1,1.06-5.46,8.92,8.92,0,0,1,3.2-3.94,9,9,0,0,1,5.3-1.48c3.41,0,5.9,1,7.46,3.08s2.34,5.17,2.34,9.36H384.72a5.47,5.47,0,0,0,1.76,3.82,6,6,0,0,0,4.16,1.38,10.92,10.92,0,0,0,3.44-.56,18.46,18.46,0,0,0,3.36-1.52v4.36A14.36,14.36,0,0,1,390.4,203Zm-1-17.64a4.4,4.4,0,0,0-3.26,1.26,5.53,5.53,0,0,0-1.46,3.58h9.12a6,6,0,0,0-1.26-3.56A3.9,3.9,0,0,0,389.44,185.34Z"></path>
      <path class="cls-2" d="M408,181.9v4.68h.08a5.82,5.82,0,0,1,.94-2.34,6.32,6.32,0,0,1,2.06-2,4.9,4.9,0,0,1,2.68-.8,6.58,6.58,0,0,1,1.6.16V187a4.92,4.92,0,0,0-2.4-.44,3.58,3.58,0,0,0-3.24,1.8q-1.12,1.8-1.12,5.68v8.48h-5.36V181.9Z"></path>
      <path class="cls-2" d="M422.2,181.9l5.12,15h.08l5-15h5.36l-7.6,20.6h-6l-7.64-20.6Z"></path>
      <path class="cls-2" d="M446.44,173v5.12h-5.36V173Zm0,8.88v20.6h-5.36V181.9Z"></path>
      <path class="cls-2" d="M461,203a9.76,9.76,0,0,1-7.5-2.9q-2.7-2.91-2.7-8a12.22,12.22,0,0,1,1.2-5.5,9,9,0,0,1,3.46-3.8,10,10,0,0,1,5.34-1.38,17.82,17.82,0,0,1,5.16.68l-.48,4.24a8.45,8.45,0,0,0-3.6-.76,4.91,4.91,0,0,0-4,1.8,7.12,7.12,0,0,0-1.5,4.72,7.57,7.57,0,0,0,1.46,4.9,5,5,0,0,0,4.1,1.82,9,9,0,0,0,2-.26,14.86,14.86,0,0,0,2.14-.7l.24,4.44A18.83,18.83,0,0,1,461,203Z"></path>
      <path class="cls-2" d="M479.32,203q-5.13,0-8-2.8c-1.9-1.87-2.84-4.5-2.84-7.88a13.6,13.6,0,0,1,1.06-5.46,8.92,8.92,0,0,1,3.2-3.94,9,9,0,0,1,5.3-1.48c3.41,0,5.9,1,7.46,3.08s2.34,5.17,2.34,9.36H473.64a5.47,5.47,0,0,0,1.76,3.82,6,6,0,0,0,4.16,1.38,10.92,10.92,0,0,0,3.44-.56,18.46,18.46,0,0,0,3.36-1.52v4.36A14.36,14.36,0,0,1,479.32,203Zm-1-17.64a4.4,4.4,0,0,0-3.26,1.26,5.53,5.53,0,0,0-1.46,3.58h9.12a6,6,0,0,0-1.26-3.56A3.9,3.9,0,0,0,478.36,185.34Z"></path>
      <path class="cls-2" d="M509,196.1l-2.44,6.4h-5.8l10.88-27.92H518l11,27.92h-6.2l-2.4-6.4Zm1.6-4.4h8.16l-4-11.52h-.08Z"></path>
      <path class="cls-2" d="M537.56,172.5v30H532.2v-30Z"></path>
      <path class="cls-2" d="M548.68,172.5v30h-5.36v-30Z"></path>
      <path class="cls-2" d="M559.8,173v5.12h-5.36V173Zm0,8.88v20.6h-5.36V181.9Z"></path>
      <path class="cls-2" d="M577.76,199.42h-.08A6.42,6.42,0,0,1,575,202a7.69,7.69,0,0,1-3.72,1,8.6,8.6,0,0,1-3.54-.74,6.33,6.33,0,0,1-2.66-2.14,5.47,5.47,0,0,1-1-3.28,6.07,6.07,0,0,1,2.48-5.2q2.48-1.85,7.6-1.84h3.32v-.08a4.22,4.22,0,0,0-1.16-3.4,5.39,5.39,0,0,0-3.48-1,9.6,9.6,0,0,0-3.3.6,11.56,11.56,0,0,0-3.06,1.64l-.16-4.6a17.8,17.8,0,0,1,3.44-1.12,16.26,16.26,0,0,1,3.72-.44q4.68,0,6.78,2t2.1,6.64v4.24c0,.91,0,2.19.08,3.86s.13,3.1.24,4.3H578C577.92,202.07,577.84,201.05,577.76,199.42Zm-8.52-2.88a2.17,2.17,0,0,0,.9,1.86,4.15,4.15,0,0,0,2.5.66,4.64,4.64,0,0,0,3.46-1.48,6.1,6.1,0,0,0,1.42-4.36V193h-2.36Q569.24,193,569.24,196.54Z"></path>
      <path class="cls-2" d="M597.76,185.58a3.85,3.85,0,0,0-3.54,2,9.44,9.44,0,0,0-1.18,5v10h-5.36V181.9h5.08v2.8h.08a7.74,7.74,0,0,1,6.76-3.28,6.38,6.38,0,0,1,5.22,2.16,9.07,9.07,0,0,1,1.78,5.92v13h-5.36V190.94a7.84,7.84,0,0,0-.82-4.08A2.92,2.92,0,0,0,597.76,185.58Z"></path>
      <path class="cls-2" d="M621,203a9.76,9.76,0,0,1-7.5-2.9q-2.7-2.91-2.7-8a12.22,12.22,0,0,1,1.2-5.5,9,9,0,0,1,3.46-3.8,10,10,0,0,1,5.34-1.38,17.82,17.82,0,0,1,5.16.68l-.48,4.24a8.45,8.45,0,0,0-3.6-.76,4.91,4.91,0,0,0-4,1.8,7.12,7.12,0,0,0-1.5,4.72,7.57,7.57,0,0,0,1.46,4.9,5,5,0,0,0,4.1,1.82,9,9,0,0,0,2-.26,14.86,14.86,0,0,0,2.14-.7l.24,4.44A18.83,18.83,0,0,1,621,203Z"></path>
      <path class="cls-2" d="M639.36,203q-5.13,0-8-2.8c-1.9-1.87-2.84-4.5-2.84-7.88a13.6,13.6,0,0,1,1.06-5.46,8.92,8.92,0,0,1,3.2-3.94,9,9,0,0,1,5.3-1.48c3.41,0,5.9,1,7.46,3.08s2.34,5.17,2.34,9.36H633.68a5.47,5.47,0,0,0,1.76,3.82,6,6,0,0,0,4.16,1.38,10.92,10.92,0,0,0,3.44-.56A18.46,18.46,0,0,0,646.4,197v4.36A14.36,14.36,0,0,1,639.36,203Zm-1-17.64a4.4,4.4,0,0,0-3.26,1.26,5.53,5.53,0,0,0-1.46,3.58h9.12a6,6,0,0,0-1.26-3.56A3.9,3.9,0,0,0,638.4,185.34Z"></path>
    </g>
  </g>
</svg>
